<mxfile host="app.diagrams.net" modified="2022-11-05T20:24:55.430Z" agent="5.0 (Windows NT 10.0; Win64; x64) AppleWebKit/537.36 (KHTML, like Gecko) Chrome/106.0.0.0 Safari/537.36" etag="lXqGzosf2E1hXo51il4P" version="20.5.1" type="github">
  <diagram id="BktI2Qd3lF0P4lVNuRtQ" name="Page-1">
    <mxGraphModel dx="860" dy="467" grid="1" gridSize="10" guides="1" tooltips="1" connect="1" arrows="1" fold="1" page="1" pageScale="1" pageWidth="1169" pageHeight="827" math="0" shadow="0">
      <root>
        <mxCell id="0" />
        <mxCell id="1" parent="0" />
        <mxCell id="IU_CKf9vG-TDteFp6h1i-1" value="2 058 120" style="html=1;fillColor=#bac8d3;strokeColor=#23445d;shadow=0;fontSize=19;align=center;fontStyle=0;whiteSpace=wrap;rounded=0;" parent="1" vertex="1">
          <mxGeometry x="185" y="235" width="100" height="100" as="geometry" />
        </mxCell>
        <mxCell id="IU_CKf9vG-TDteFp6h1i-2" value="231" style="html=1;fillColor=#bac8d3;strokeColor=#23445d;shadow=0;fontSize=19;align=center;fontStyle=0;whiteSpace=wrap;rounded=0;" parent="1" vertex="1">
          <mxGeometry x="290" y="235" width="100" height="100" as="geometry" />
        </mxCell>
        <mxCell id="IU_CKf9vG-TDteFp6h1i-3" value="323" style="html=1;fillColor=#bac8d3;strokeColor=#23445d;shadow=0;fontSize=19;align=center;fontStyle=0;whiteSpace=wrap;rounded=0;" parent="1" vertex="1">
          <mxGeometry x="185" y="340" width="100" height="100" as="geometry" />
        </mxCell>
        <mxCell id="IU_CKf9vG-TDteFp6h1i-4" value="1 764" style="html=1;fillColor=#bac8d3;strokeColor=#23445d;shadow=0;fontSize=19;align=center;fontStyle=0;whiteSpace=wrap;rounded=0;" parent="1" vertex="1">
          <mxGeometry x="290" y="340" width="100" height="100" as="geometry" />
        </mxCell>
        <mxCell id="IU_CKf9vG-TDteFp6h1i-5" value="Not Fraud" style="html=1;fillColor=#CCCCCC;strokeColor=none;shadow=0;fontSize=14;fontColor=#FFFFFF;align=center;fontStyle=1;whiteSpace=wrap;horizontal=0;rounded=0;" parent="1" vertex="1">
          <mxGeometry x="150" y="235" width="30" height="100" as="geometry" />
        </mxCell>
        <mxCell id="IU_CKf9vG-TDteFp6h1i-6" value="Fraud" style="html=1;fillColor=#CCCCCC;strokeColor=none;shadow=0;fontSize=14;fontColor=#FFFFFF;align=center;fontStyle=1;whiteSpace=wrap;horizontal=0;rounded=0;" parent="1" vertex="1">
          <mxGeometry x="150" y="340" width="30" height="100" as="geometry" />
        </mxCell>
        <mxCell id="IU_CKf9vG-TDteFp6h1i-7" value="Not Fraud" style="html=1;fillColor=#CCCCCC;strokeColor=none;shadow=0;fontSize=14;fontColor=#FFFFFF;align=center;fontStyle=1;whiteSpace=wrap;rounded=0;" parent="1" vertex="1">
          <mxGeometry x="185" y="200" width="100" height="30" as="geometry" />
        </mxCell>
        <mxCell id="IU_CKf9vG-TDteFp6h1i-8" value="Fraud" style="html=1;fillColor=#CCCCCC;strokeColor=none;shadow=0;fontSize=14;fontColor=#FFFFFF;align=center;fontStyle=1;whiteSpace=wrap;rounded=0;" parent="1" vertex="1">
          <mxGeometry x="290" y="200" width="100" height="30" as="geometry" />
        </mxCell>
        <mxCell id="IU_CKf9vG-TDteFp6h1i-12" value="Predicted" style="shape=step;perimeter=stepPerimeter;whiteSpace=wrap;html=1;fixedSize=1;size=10;fillColor=#10739E;strokeColor=none;fontSize=17;fontStyle=1;align=center;fontColor=#FFFFFF;" parent="1" vertex="1">
          <mxGeometry x="190" y="163" width="200" height="30" as="geometry" />
        </mxCell>
        <mxCell id="IU_CKf9vG-TDteFp6h1i-14" value="Actual" style="shape=step;perimeter=stepPerimeter;whiteSpace=wrap;html=1;fixedSize=1;size=10;fillColor=#10739E;strokeColor=none;fontSize=17;fontStyle=1;align=center;fontColor=#FFFFFF;rotation=-90;" parent="1" vertex="1">
          <mxGeometry x="30" y="320" width="200" height="30" as="geometry" />
        </mxCell>
        <mxCell id="IU_CKf9vG-TDteFp6h1i-15" value="2 058 094" style="html=1;fillColor=#bac8d3;strokeColor=#23445d;shadow=0;fontSize=19;align=center;fontStyle=0;whiteSpace=wrap;rounded=0;" parent="1" vertex="1">
          <mxGeometry x="472.5" y="235" width="100" height="100" as="geometry" />
        </mxCell>
        <mxCell id="IU_CKf9vG-TDteFp6h1i-16" value="257" style="html=1;fillColor=#bac8d3;strokeColor=#23445d;shadow=0;fontSize=19;align=center;fontStyle=0;whiteSpace=wrap;rounded=0;" parent="1" vertex="1">
          <mxGeometry x="577.5" y="235" width="100" height="100" as="geometry" />
        </mxCell>
        <mxCell id="IU_CKf9vG-TDteFp6h1i-17" value="278" style="html=1;fillColor=#bac8d3;strokeColor=#23445d;shadow=0;fontSize=19;align=center;fontStyle=0;whiteSpace=wrap;rounded=0;" parent="1" vertex="1">
          <mxGeometry x="472.5" y="340" width="100" height="100" as="geometry" />
        </mxCell>
        <mxCell id="IU_CKf9vG-TDteFp6h1i-18" value="1 809" style="html=1;fillColor=#d5e8d4;strokeColor=#82b366;shadow=0;fontSize=19;align=center;fontStyle=0;whiteSpace=wrap;rounded=0;" parent="1" vertex="1">
          <mxGeometry x="577.5" y="340" width="100" height="100" as="geometry" />
        </mxCell>
        <mxCell id="IU_CKf9vG-TDteFp6h1i-19" value="Not Fraud" style="html=1;fillColor=#CCCCCC;strokeColor=none;shadow=0;fontSize=14;fontColor=#FFFFFF;align=center;fontStyle=1;whiteSpace=wrap;horizontal=0;rounded=0;" parent="1" vertex="1">
          <mxGeometry x="437.5" y="235" width="30" height="100" as="geometry" />
        </mxCell>
        <mxCell id="IU_CKf9vG-TDteFp6h1i-20" value="Fraud" style="html=1;fillColor=#CCCCCC;strokeColor=none;shadow=0;fontSize=14;fontColor=#FFFFFF;align=center;fontStyle=1;whiteSpace=wrap;horizontal=0;rounded=0;" parent="1" vertex="1">
          <mxGeometry x="437.5" y="340" width="30" height="100" as="geometry" />
        </mxCell>
        <mxCell id="IU_CKf9vG-TDteFp6h1i-21" value="Not Fraud" style="html=1;fillColor=#CCCCCC;strokeColor=none;shadow=0;fontSize=14;fontColor=#FFFFFF;align=center;fontStyle=1;whiteSpace=wrap;rounded=0;" parent="1" vertex="1">
          <mxGeometry x="472.5" y="200" width="100" height="30" as="geometry" />
        </mxCell>
        <mxCell id="IU_CKf9vG-TDteFp6h1i-22" value="Fraud" style="html=1;fillColor=#CCCCCC;strokeColor=none;shadow=0;fontSize=14;fontColor=#FFFFFF;align=center;fontStyle=1;whiteSpace=wrap;rounded=0;" parent="1" vertex="1">
          <mxGeometry x="577.5" y="200" width="100" height="30" as="geometry" />
        </mxCell>
        <mxCell id="IU_CKf9vG-TDteFp6h1i-23" value="Predicted" style="shape=step;perimeter=stepPerimeter;whiteSpace=wrap;html=1;fixedSize=1;size=10;fillColor=#10739E;strokeColor=none;fontSize=17;fontStyle=1;align=center;fontColor=#FFFFFF;" parent="1" vertex="1">
          <mxGeometry x="477.5" y="163" width="200" height="30" as="geometry" />
        </mxCell>
        <mxCell id="gxY6BVN1A55ghOALHIfJ-1" value="" style="strokeWidth=2;html=1;shape=mxgraph.flowchart.annotation_1;align=left;pointerEvents=1;rotation=90;dashed=1;verticalAlign=middle;gradientColor=none;" vertex="1" parent="1">
          <mxGeometry x="418.75" y="-0.75" width="20" height="287.5" as="geometry" />
        </mxCell>
        <mxCell id="gxY6BVN1A55ghOALHIfJ-2" value="Improvement" style="text;html=1;align=center;verticalAlign=middle;whiteSpace=wrap;rounded=0;dashed=1;fontSize=20;labelBackgroundColor=default;" vertex="1" parent="1">
          <mxGeometry x="398.75" y="118" width="60" height="30" as="geometry" />
        </mxCell>
        <mxCell id="gxY6BVN1A55ghOALHIfJ-3" value="" style="endArrow=classic;html=1;rounded=0;fontSize=20;" edge="1" parent="1">
          <mxGeometry width="50" height="50" relative="1" as="geometry">
            <mxPoint x="572.5" y="150" as="sourcePoint" />
            <mxPoint x="572.5" y="160" as="targetPoint" />
          </mxGeometry>
        </mxCell>
      </root>
    </mxGraphModel>
  </diagram>
</mxfile>
